<svg width="33" height="33" viewBox="0 0 33 33" fill="none" xmlns="http://www.w3.org/2000/svg">
<path d="M10.7327 29.1613C11.8373 29.1613 12.7327 28.2659 12.7327 27.1613C12.7327 26.0567 11.8373 25.1613 10.7327 25.1613C9.62815 25.1613 8.73272 26.0567 8.73272 27.1613C8.73272 28.2659 9.62815 29.1613 10.7327 29.1613Z" fill="white"/>
<path d="M23.7327 29.1613C24.8373 29.1613 25.7327 28.2659 25.7327 27.1613C25.7327 26.0567 24.8373 25.1613 23.7327 25.1613C22.6281 25.1613 21.7327 26.0567 21.7327 27.1613C21.7327 28.2659 22.6281 29.1613 23.7327 29.1613Z" fill="white"/>
<path d="M6.01844 9.16129H28.447L25.1472 20.7107C25.0278 21.1286 24.7755 21.4963 24.4285 21.758C24.0815 22.0197 23.6587 22.1613 23.2241 22.1613H11.2413C10.8067 22.1613 10.3839 22.0197 10.0369 21.758C9.68995 21.4963 9.43767 21.1286 9.31827 20.7107L4.79708 4.88656C4.73738 4.67762 4.61125 4.4938 4.43776 4.36294C4.26427 4.23207 4.05287 4.16129 3.83556 4.16129H1.73272" stroke="white" stroke-width="2" stroke-linecap="round" stroke-linejoin="round"/>
</svg>
